<svg width="512" height="512" viewBox="0 0 512 512" fill="none" xmlns="http://www.w3.org/2000/svg">
  <rect width="512" height="512" rx="28" fill="#1E1E1E"/>
  <rect x="32" y="32" width="448" height="448" rx="24" fill="#262626"/>
  <path d="M99 479C118 427 154 390 215 380H298C359 390 394 427 413 479H99Z" fill="#303347"/>
  <path d="M157 175C160 123 201 88 256 88C311 88 352 123 355 175L337 215H175L157 175Z" fill="#616575"/>
  <path d="M180 123C191 101 219 84 256 84C293 84 323 100 334 123L319 163L293 147L272 170L241 141L218 170L198 145L180 123Z" fill="#464A5D"/>
  <path d="M202 160C188 171 179 190 179 212V239C179 295 214 340 256 340C298 340 333 295 333 239V212C333 190 324 171 310 160L280 188L252 176L224 189L202 160Z" fill="#A9AFBF"/>
  <path d="M182 240L171 214C161 220 155 234 157 247C159 261 168 272 180 276L182 240Z" fill="#8D93A6"/>
  <path d="M330 240L341 214C351 220 357 234 355 247C353 261 344 272 332 276L330 240Z" fill="#8D93A6"/>
  <path d="M233 348C241 357 248 360 256 360C264 360 271 357 279 348L306 364L286 392H226L206 364L233 348Z" fill="#8D93A6"/>
</svg>
